<svg width="46" height="46" viewBox="0 0 46 46" fill="none" xmlns="http://www.w3.org/2000/svg">
<g filter="url(#filter0_b_110_166)">
<circle cx="23" cy="23" r="23" fill="white" fill-opacity="0.5"/>
</g>
<path d="M27.5862 13H18.4138C15.4286 13 13 15.4286 13 18.4138V27.5863C13 30.5714 15.4286 33 18.4138 33H27.5863C30.5714 33 33 30.5714 33 27.5863V18.4138C33 15.4286 30.5714 13 27.5862 13V13ZM23 28.4686C19.9845 28.4686 17.5314 26.0154 17.5314 23C17.5314 19.9845 19.9845 17.5314 23 17.5314C26.0154 17.5314 28.4686 19.9845 28.4686 23C28.4686 26.0154 26.0154 28.4686 23 28.4686ZM28.5993 18.8211C27.7082 18.8211 26.9834 18.0963 26.9834 17.2052C26.9834 16.314 27.7082 15.5891 28.5993 15.5891C29.4904 15.5891 30.2154 16.314 30.2154 17.2052C30.2154 18.0963 29.4904 18.8211 28.5993 18.8211Z" fill="white"/>
<path d="M22.9992 18.7031C20.6305 18.7031 18.7031 20.6303 18.7031 22.9992C18.7031 25.368 20.6305 27.2953 22.9992 27.2953C25.3682 27.2953 27.2953 25.368 27.2953 22.9992C27.2953 20.6303 25.3682 18.7031 22.9992 18.7031Z" fill="white"/>
<path d="M28.5997 16.7617C28.3552 16.7617 28.1562 16.9607 28.1562 17.2051C28.1562 17.4496 28.3552 17.6486 28.5997 17.6486C28.8443 17.6486 29.0432 17.4497 29.0432 17.2051C29.0432 16.9605 28.8443 16.7617 28.5997 16.7617Z" fill="white"/>
<defs>
<filter id="filter0_b_110_166" x="-4" y="-4" width="54" height="54" filterUnits="userSpaceOnUse" color-interpolation-filters="sRGB">
<feFlood flood-opacity="0" result="BackgroundImageFix"/>
<feGaussianBlur in="BackgroundImage" stdDeviation="2"/>
<feComposite in2="SourceAlpha" operator="in" result="effect1_backgroundBlur_110_166"/>
<feBlend mode="normal" in="SourceGraphic" in2="effect1_backgroundBlur_110_166" result="shape"/>
</filter>
</defs>
</svg>
