<svg width="46" height="46" viewBox="0 0 46 46" fill="none" xmlns="http://www.w3.org/2000/svg">
<circle cx="23" cy="23" r="23" fill="#4137D0"/>
<g clip-path="url(#clip0_110_187)">
<path d="M27.3516 14.4375C26.4419 14.4386 25.5422 14.626 24.7077 14.9882C23.8733 15.3504 23.122 15.8797 22.5 16.5434C21.5885 15.5706 20.4057 14.8943 19.105 14.6023C17.8043 14.3102 16.4458 14.4159 15.2059 14.9057C13.9661 15.3954 12.9021 16.2466 12.1521 17.3487C11.402 18.4508 11.0007 19.7529 11 21.0859C11 27.7056 21.677 34.2031 22.1406 34.4583C22.2524 34.5254 22.3804 34.5609 22.5108 34.5609C22.6412 34.5609 22.7691 34.5254 22.8809 34.4583C23.323 34.2031 34 27.7056 34 21.0859C33.9981 19.3232 33.297 17.6333 32.0506 16.3869C30.8042 15.1405 29.1143 14.4394 27.3516 14.4375V14.4375ZM22.5 32.9956C20.642 31.8097 12.4375 26.2681 12.4375 21.0859C12.4384 19.979 12.7918 18.9012 13.4464 18.0086C14.101 17.116 15.0228 16.4551 16.0783 16.1215C17.1337 15.788 18.268 15.7992 19.3166 16.1536C20.3652 16.5079 21.2738 17.187 21.9106 18.0923C21.977 18.1865 22.065 18.2634 22.1672 18.3164C22.2695 18.3695 22.383 18.3971 22.4982 18.3971C22.6134 18.3971 22.7269 18.3695 22.8292 18.3164C22.9314 18.2634 23.0194 18.1865 23.0858 18.0923C23.7221 17.1854 24.6308 16.5049 25.6802 16.1495C26.7295 15.7942 27.8648 15.7825 28.9212 16.1162C29.9776 16.45 30.9002 17.1117 31.555 18.0053C32.2097 18.899 32.5627 19.9781 32.5625 21.0859C32.5625 26.2645 24.358 31.8061 22.5 32.9956Z" fill="white"/>
</g>
<defs>
<clipPath id="clip0_110_187">
<rect width="23" height="23" fill="white" transform="translate(11 13)"/>
</clipPath>
</defs>
</svg>
