<svg width="46" height="46" viewBox="0 0 46 46" fill="none" xmlns="http://www.w3.org/2000/svg">
<g filter="url(#filter0_b_110_206)">
<circle cx="23" cy="23" r="23" fill="black"/>
</g>
<path d="M31.7616 18.0151C30.6202 18.0151 29.5671 17.637 28.7214 16.9991C27.7515 16.2679 27.0546 15.1952 26.8085 13.9589C26.7476 13.6534 26.7147 13.3382 26.7116 13.0151H23.4511V21.9245L23.4472 26.8046C23.4472 28.1093 22.5976 29.2155 21.4198 29.6046C21.078 29.7175 20.7089 29.771 20.3245 29.7499C19.8339 29.7229 19.3741 29.5749 18.9745 29.3358C18.1241 28.8272 17.5476 27.9046 17.5319 26.8491C17.5073 25.1995 18.8409 23.8546 20.4893 23.8546C20.8147 23.8546 21.1272 23.9077 21.4198 24.0042V21.569V20.6936C21.1112 20.6479 20.7972 20.6241 20.4796 20.6241C18.6753 20.6241 16.9878 21.3741 15.7815 22.7253C14.8698 23.7464 14.3229 25.0491 14.2386 26.4151C14.128 28.2097 14.7847 29.9155 16.0581 31.1741C16.2452 31.3589 16.4417 31.5304 16.6472 31.6886C17.739 32.5288 19.0737 32.9843 20.4796 32.9843C20.7972 32.9843 21.1112 32.9608 21.4198 32.9151C22.7331 32.7206 23.9448 32.1194 24.9011 31.1741C26.0761 30.0128 26.7253 28.471 26.7323 26.83L26.7155 19.5425C27.2761 19.9749 27.889 20.3327 28.5468 20.6104C29.5698 21.0421 30.6546 21.2608 31.771 21.2604V18.8929V18.0144C31.7718 18.0151 31.7624 18.0151 31.7616 18.0151Z" fill="white"/>
<defs>
<filter id="filter0_b_110_206" x="-4" y="-4" width="54" height="54" filterUnits="userSpaceOnUse" color-interpolation-filters="sRGB">
<feFlood flood-opacity="0" result="BackgroundImageFix"/>
<feGaussianBlur in="BackgroundImage" stdDeviation="2"/>
<feComposite in2="SourceAlpha" operator="in" result="effect1_backgroundBlur_110_206"/>
<feBlend mode="normal" in="SourceGraphic" in2="effect1_backgroundBlur_110_206" result="shape"/>
</filter>
</defs>
</svg>
