<svg width="44" height="44" viewBox="0 0 44 44" fill="none" xmlns="http://www.w3.org/2000/svg">
<circle cx="22" cy="22" r="22" fill="#272727"/>
<g clip-path="url(#clip0_97_13437)">
<path d="M26.1626 13.8098C25.2925 13.8108 24.4319 13.9901 23.6337 14.3365C22.8356 14.683 22.1169 15.1893 21.522 15.8242C20.6501 14.8937 19.5187 14.2468 18.2745 13.9674C17.0304 13.6881 15.731 13.7892 14.5451 14.2576C13.3591 14.7261 12.3414 15.5403 11.6239 16.5944C10.9065 17.6486 10.5226 18.8941 10.522 20.1692C10.522 26.5011 20.7348 32.7161 21.1782 32.9601C21.2852 33.0244 21.4075 33.0583 21.5323 33.0583C21.657 33.0583 21.7794 33.0244 21.8863 32.9601C22.3092 32.7161 32.522 26.5011 32.522 20.1692C32.5202 18.4831 31.8496 16.8667 30.6573 15.6744C29.4651 14.4822 27.8486 13.8116 26.1626 13.8098ZM21.522 31.5611C19.7448 30.4267 11.897 25.1261 11.897 20.1692C11.8979 19.1104 12.2359 18.0794 12.862 17.2257C13.4881 16.3719 14.3699 15.7397 15.3794 15.4206C16.389 15.1016 17.4739 15.1123 18.477 15.4513C19.48 15.7902 20.3491 16.4398 20.9582 17.3058C21.0217 17.3958 21.1059 17.4693 21.2037 17.5201C21.3015 17.5708 21.4101 17.5973 21.5203 17.5973C21.6304 17.5973 21.739 17.5708 21.8368 17.5201C21.9346 17.4693 22.0188 17.3958 22.0823 17.3058C22.6909 16.4383 23.5602 15.7873 24.5639 15.4474C25.5676 15.1075 26.6535 15.0964 27.664 15.4156C28.6745 15.7348 29.5569 16.3677 30.1832 17.2225C30.8095 18.0773 31.1471 19.1095 31.147 20.1692C31.147 25.1226 23.2992 30.4233 21.522 31.5611Z" fill="white"/>
</g>
<defs>
<clipPath id="clip0_97_13437">
<rect width="22" height="22" fill="white" transform="translate(10.522 12.4348)"/>
</clipPath>
</defs>
</svg>
