<svg width="44" height="44" viewBox="0 0 44 44" fill="none" xmlns="http://www.w3.org/2000/svg">
<g filter="url(#filter0_b_97_13418)">
<circle cx="22" cy="22" r="22" fill="#272727"/>
</g>
<g clip-path="url(#clip0_97_13418)">
<path d="M30.3815 17.2321C29.2898 17.2321 28.2824 16.8704 27.4735 16.2602C26.5457 15.5608 25.8792 14.5348 25.6438 13.3522C25.5855 13.06 25.5541 12.7585 25.5511 12.4495H22.4323V20.9715L22.4286 25.6394C22.4286 26.8873 21.6159 27.9455 20.4894 28.3176C20.1625 28.4256 19.8094 28.4768 19.4417 28.4566C18.9724 28.4308 18.5326 28.2892 18.1504 28.0606C17.337 27.5741 16.7855 26.6915 16.7705 25.682C16.747 24.1041 18.0226 22.8176 19.5994 22.8176C19.9106 22.8176 20.2095 22.8684 20.4894 22.9607V20.6315V19.7941C20.1942 19.7504 19.8938 19.7276 19.59 19.7276C17.8642 19.7276 16.2501 20.445 15.0963 21.7374C14.2242 22.7141 13.7011 23.9602 13.6204 25.2668C13.5146 26.9834 14.1427 28.615 15.3608 29.8189C15.5398 29.9956 15.7277 30.1597 15.9242 30.311C16.9686 31.1147 18.2453 31.5504 19.59 31.5504C19.8938 31.5504 20.1942 31.528 20.4894 31.4842C21.7456 31.2982 22.9046 30.7231 23.8193 29.8189C24.9432 28.7081 25.5642 27.2333 25.5709 25.6637L25.5548 18.693C26.091 19.1066 26.6773 19.4489 27.3065 19.7145C28.285 20.1274 29.3226 20.3367 30.3905 20.3363V18.0716V17.2313C30.3913 17.2321 30.3823 17.2321 30.3815 17.2321Z" fill="white"/>
</g>
<defs>
<filter id="filter0_b_97_13418" x="-4" y="-4" width="52" height="52" filterUnits="userSpaceOnUse" color-interpolation-filters="sRGB">
<feFlood flood-opacity="0" result="BackgroundImageFix"/>
<feGaussianBlur in="BackgroundImage" stdDeviation="2"/>
<feComposite in2="SourceAlpha" operator="in" result="effect1_backgroundBlur_97_13418"/>
<feBlend mode="normal" in="SourceGraphic" in2="effect1_backgroundBlur_97_13418" result="shape"/>
</filter>
<clipPath id="clip0_97_13418">
<rect width="19.1304" height="19.1304" fill="white" transform="translate(12.4346 12.4348)"/>
</clipPath>
</defs>
</svg>
