<svg width="96" height="50" viewBox="0 0 96 50" fill="none" xmlns="http://www.w3.org/2000/svg">
<g filter="url(#filter0_b_293_584)">
<path d="M0 25C0 11.1929 11.1929 0 25 0H71C84.8071 0 96 11.1929 96 25C96 38.8071 84.8071 50 71 50H25C11.1929 50 0 38.8071 0 25Z" fill="white" fill-opacity="0.4"/>
</g>
<path d="M57.1781 22.66C57.0715 21.82 56.7848 21.1733 56.3181 20.72C55.8648 20.2533 55.2315 20.02 54.4181 20.02C53.2848 20.02 52.4248 20.46 51.8381 21.34C51.2648 22.22 50.9781 23.6133 50.9781 25.52L50.9981 26.26C51.1981 25.46 51.6581 24.8267 52.3781 24.36C53.0981 23.88 53.9448 23.64 54.9181 23.64C56.3181 23.64 57.4115 24.06 58.1981 24.9C58.9981 25.74 59.3981 26.9133 59.3981 28.42C59.3981 29.3 59.2248 30.1 58.8781 30.82C58.5315 31.5267 57.9981 32.0933 57.2781 32.52C56.5715 32.9333 55.6915 33.14 54.6381 33.14C52.6248 33.14 51.2381 32.5067 50.4781 31.24C49.7315 29.9733 49.3581 28.2533 49.3581 26.08C49.3581 23.5733 49.7581 21.6933 50.5581 20.44C51.3715 19.1733 52.6915 18.54 54.5181 18.54C55.8648 18.54 56.8981 18.92 57.6181 19.68C58.3515 20.44 58.7848 21.4333 58.9181 22.66H57.1781ZM51.1981 28.12C51.1981 29.0933 51.4781 29.9133 52.0381 30.58C52.6115 31.2333 53.4648 31.56 54.5981 31.56C55.5315 31.56 56.2781 31.2867 56.8381 30.74C57.3981 30.18 57.6781 29.4 57.6781 28.4C57.6781 27.32 57.3981 26.5 56.8381 25.94C56.2781 25.3667 55.5048 25.08 54.5181 25.08C53.9581 25.08 53.4248 25.1933 52.9181 25.42C52.4115 25.6467 51.9981 25.9933 51.6781 26.46C51.3581 26.9133 51.1981 27.4667 51.1981 28.12ZM69.6 22.66C69.4933 21.82 69.2067 21.1733 68.74 20.72C68.2867 20.2533 67.6533 20.02 66.84 20.02C65.7067 20.02 64.8467 20.46 64.26 21.34C63.6867 22.22 63.4 23.6133 63.4 25.52L63.42 26.26C63.62 25.46 64.08 24.8267 64.8 24.36C65.52 23.88 66.3667 23.64 67.34 23.64C68.74 23.64 69.8333 24.06 70.62 24.9C71.42 25.74 71.82 26.9133 71.82 28.42C71.82 29.3 71.6467 30.1 71.3 30.82C70.9533 31.5267 70.42 32.0933 69.7 32.52C68.9933 32.9333 68.1133 33.14 67.06 33.14C65.0467 33.14 63.66 32.5067 62.9 31.24C62.1533 29.9733 61.78 28.2533 61.78 26.08C61.78 23.5733 62.18 21.6933 62.98 20.44C63.7933 19.1733 65.1133 18.54 66.94 18.54C68.2867 18.54 69.32 18.92 70.04 19.68C70.7733 20.44 71.2067 21.4333 71.34 22.66H69.6ZM63.62 28.12C63.62 29.0933 63.9 29.9133 64.46 30.58C65.0333 31.2333 65.8867 31.56 67.02 31.56C67.9533 31.56 68.7 31.2867 69.26 30.74C69.82 30.18 70.1 29.4 70.1 28.4C70.1 27.32 69.82 26.5 69.26 25.94C68.7 25.3667 67.9267 25.08 66.94 25.08C66.38 25.08 65.8467 25.1933 65.34 25.42C64.8333 25.6467 64.42 25.9933 64.1 26.46C63.78 26.9133 63.62 27.4667 63.62 28.12Z" fill="white"/>
<g clip-path="url(#clip0_293_584)">
<path d="M16.0626 17.6856C17.4085 16.2258 19.2553 15.4219 21.2631 15.4219C22.7639 15.4219 24.1384 15.8964 25.3484 16.832C25.959 17.3044 26.5122 17.8822 27 18.5566C27.4876 17.8824 28.041 17.3044 28.6518 16.832C29.8616 15.8964 31.2361 15.4219 32.7369 15.4219C34.7447 15.4219 36.5917 16.2258 37.9376 17.6856C39.2674 19.1283 40 21.0993 40 23.2356C40 25.4345 39.1806 27.4473 37.4213 29.5702C35.8474 31.4691 33.5855 33.3969 30.9661 35.629C30.0717 36.3914 29.0578 37.2554 28.0051 38.1758C27.727 38.4194 27.3701 38.5535 27 38.5535C26.6301 38.5535 26.273 38.4194 25.9953 38.1762C24.9426 37.2556 23.9281 36.3912 23.0333 35.6284C20.4143 33.3967 18.1524 31.4691 16.5785 29.57C14.8192 27.4473 14 25.4345 14 23.2354C14 21.0993 14.7326 19.1283 16.0626 17.6856Z" fill="white"/>
</g>
<defs>
<filter id="filter0_b_293_584" x="-6" y="-6" width="108" height="62" filterUnits="userSpaceOnUse" color-interpolation-filters="sRGB">
<feFlood flood-opacity="0" result="BackgroundImageFix"/>
<feGaussianBlur in="BackgroundImage" stdDeviation="3"/>
<feComposite in2="SourceAlpha" operator="in" result="effect1_backgroundBlur_293_584"/>
<feBlend mode="normal" in="SourceGraphic" in2="effect1_backgroundBlur_293_584" result="shape"/>
</filter>
<clipPath id="clip0_293_584">
<rect width="26" height="26" fill="white" transform="matrix(-1 0 0 1 40 14)"/>
</clipPath>
</defs>
</svg>
