<svg width="50" height="50" viewBox="0 0 50 50" fill="none" xmlns="http://www.w3.org/2000/svg">
<g filter="url(#filter0_b_293_589)">
<circle cx="25" cy="25" r="25" fill="white" fill-opacity="0.4"/>
</g>
<g clip-path="url(#clip0_293_589)">
<path d="M29.7295 15.6934C28.7408 15.6945 27.7627 15.8982 26.8558 16.2919C25.9488 16.6856 25.1321 17.2609 24.4561 17.9824C23.4653 16.925 22.1796 16.1899 20.7658 15.8725C19.352 15.555 17.8754 15.6699 16.5277 16.2023C15.1801 16.7346 14.0235 17.6598 13.2083 18.8577C12.3931 20.0556 11.9568 21.4709 11.9561 22.9199C11.9561 30.1152 23.5615 37.1777 24.0654 37.4551C24.1869 37.5281 24.326 37.5666 24.4678 37.5666C24.6095 37.5666 24.7486 37.5281 24.8701 37.4551C25.3506 37.1777 36.9561 30.1152 36.9561 22.9199C36.954 21.004 36.192 19.167 34.8372 17.8123C33.4824 16.4575 31.6455 15.6954 29.7295 15.6934ZM24.4561 35.8652C22.4365 34.5762 13.5186 28.5527 13.5186 22.9199C13.5196 21.7168 13.9037 20.5452 14.6152 19.575C15.3267 18.6048 16.3287 17.8864 17.4759 17.5238C18.6231 17.1613 19.856 17.1735 20.9958 17.5587C22.1357 17.9438 23.1232 18.6819 23.8154 19.666C23.8875 19.7684 23.9832 19.8519 24.0944 19.9096C24.2055 19.9672 24.3289 19.9973 24.4541 19.9973C24.5793 19.9973 24.7027 19.9672 24.8138 19.9096C24.925 19.8519 25.0207 19.7684 25.0928 19.666C25.7844 18.6802 26.7722 17.9405 27.9128 17.5543C29.0533 17.168 30.2873 17.1554 31.4356 17.5181C32.5839 17.8808 33.5867 18.6001 34.2984 19.5714C35.0101 20.5428 35.3937 21.7157 35.3936 22.9199C35.3936 28.5488 26.4756 34.5723 24.4561 35.8652Z" fill="white"/>
</g>
<defs>
<filter id="filter0_b_293_589" x="-6" y="-6" width="62" height="62" filterUnits="userSpaceOnUse" color-interpolation-filters="sRGB">
<feFlood flood-opacity="0" result="BackgroundImageFix"/>
<feGaussianBlur in="BackgroundImage" stdDeviation="3"/>
<feComposite in2="SourceAlpha" operator="in" result="effect1_backgroundBlur_293_589"/>
<feBlend mode="normal" in="SourceGraphic" in2="effect1_backgroundBlur_293_589" result="shape"/>
</filter>
<clipPath id="clip0_293_589">
<rect width="25" height="25" fill="white" transform="translate(11.9561 14.1309)"/>
</clipPath>
</defs>
</svg>
